<?xml version="1.0" encoding="utf-8"?>
<!-- Generator: Adobe Illustrator 24.0.2, SVG Export Plug-In . SVG Version: 6.00 Build 0)  -->
<svg version="1.1" id="圖層_1" xmlns="http://www.w3.org/2000/svg" xmlns:xlink="http://www.w3.org/1999/xlink" x="0px" y="0px"
	 viewBox="0 0 1440 900" style="enable-background:new 0 0 1440 900;" xml:space="preserve">
<style type="text/css">
	.st0{fill:#FFFFFF;}
	.st1{fill:#101212;}
	.st2{fill:#040000;}
	.st3{fill:#040101;}
	.st4{fill:#070707;}
	.st5{fill:#060404;}
	.st6{fill:#050101;}
	.st7{fill:#525352;}
	.st8{fill:#C9CAC9;}
	.st9{fill:#0E1010;}
	.st10{fill:#080808;}
	.st11{fill:#0F1010;}
	.st12{fill:#0A0B0A;}
	.st13{fill:#121413;}
	.st14{fill:#EBEBEA;}
	.st15{fill:#0D0F0E;}
	.st16{fill:#F8F8F8;}
	.st17{fill:#282928;}
	.st18{fill:#0D0E0D;}
	.st19{fill:#1B1C1B;}
	.st20{fill:#F6F6F6;}
	.st21{fill:#171918;}
	.st22{fill:#202120;}
	.st23{fill:#262726;}
	.st24{fill:#343534;}
	.st25{fill:#282A2A;}
	.st26{fill:#454543;}
	.st27{fill:#262827;}
	.st28{fill:#F9F9F9;}
	.st29{fill:#FCFCFD;}
	.st30{fill:#F4F4F4;}
	.st31{fill:#F3F3F3;}
	.st32{fill:#FCFCFC;}
</style>
<g>
	<path class="st0" d="M500.5,592.2c-74.6,0-149.2,0-223.8,0.1c-3.3,0-4.1-0.5-4.1-4c0.1-149.6,0.1-299.1,0-448.7
		c0-3.8,1-4.2,4.4-4.2c149.4,0.1,298.8,0.1,448.2,0c3.5,0,4.4,0.5,4.4,4.3c-0.1,149.4-0.1,298.8,0,448.2c0,3.9-1.1,4.5-4.7,4.5
		C650.1,592.2,575.3,592.2,500.5,592.2z"/>
	<path class="st1" d="M358.4,365.3c0-68,0-136-0.1-203.9c0-4,0.7-5.2,5-5.2c94.6,0.1,189.1,0.1,283.7,0c3.8,0,4.9,0.8,4.9,4.8
		c-0.1,136.5-0.1,272.9,0,409.4c0,4.4-1.4,4.9-5.3,4.9c-94.4-0.1-188.8-0.1-283.2,0c-4.1,0-5.1-0.9-5.1-5.1
		C358.4,502,358.4,433.7,358.4,365.3z"/>
	<path class="st0" d="M360.3,365.8c0-67.5,0.1-134.9-0.1-202.4c0-4.4,1.1-5.4,5.4-5.3c93.1,0.1,186.1,0.1,279.2,0
		c4.7,0,5.6,1.4,5.6,5.8c-0.1,134.6-0.1,269.2,0,403.8c0,5-1.4,5.9-6,5.8c-92.7-0.1-185.4-0.1-278.2,0c-4.6,0-6-0.8-6-5.8
		C360.3,500.4,360.3,433.1,360.3,365.8z"/>
	<path class="st2" d="M563.7,355.1c0-10.8,0.1-21.6-0.1-32.4c-0.1-3,0.7-3.9,3.8-3.9c12.6,0.2,25.3,0.1,37.9,0.1
		c1.9,0,4-0.7,3.9,2.7c-0.1,3.2-2.2,2.2-3.8,2.2c-11.1,0.1-22.3,0.2-33.4,0c-3.1-0.1-4,0.9-3.8,3.9c0.2,6.3,0.3,12.6,0,18.9
		c-0.2,3.7,1.3,4.3,4.5,4.2c9.3-0.2,18.6-0.1,27.9-0.1c1.7,0,3.6-0.7,3.6,2.5c0,3.1-1.8,2.5-3.6,2.5c-9.5,0-18.9,0.2-28.4-0.1
		c-3.4-0.1-4.2,1-4.1,4.2c0.2,7.5,0.3,15,0,22.4c-0.2,4.1,1.4,4.5,4.8,4.5c10.8-0.2,21.6-0.1,32.4-0.1c1.9,0,4-0.7,3.9,2.7
		c-0.1,3.2-2.3,2.2-3.8,2.2c-12.6,0.1-25.3-0.1-37.9,0.1c-3,0-3.9-0.7-3.9-3.8C563.9,377,563.7,366.1,563.7,355.1z"/>
	<path class="st2" d="M562.7,247.4c0-10.8,0.1-21.6-0.1-32.4c0-2.9,0.4-4,3.7-4c12.6,0.2,25.3,0.1,37.9,0.1c1.8,0,4.1-0.9,4,2.6
		c-0.1,3.6-2.6,2.3-4.2,2.3c-11,0.1-21.9,0.2-32.9,0c-3,0-4,0.7-3.9,3.8c0.3,6.5,0.3,13,0,19.4c-0.1,3.2,1,3.9,4,3.8
		c9.3-0.2,18.6-0.1,27.9,0c1.6,0,4.1-1.3,4.2,2.3c0.1,3.5-2.2,2.6-4,2.6c-9.5,0.1-18.9,0.1-28.4,0c-2.8,0-3.7,0.7-3.6,3.6
		c0.2,8,0.2,16,0,23.9c-0.1,3,1,3.6,3.7,3.5c11.1-0.1,22.3-0.1,33.4,0c1.8,0,4-0.8,3.9,2.6c-0.1,3.2-2.2,2.3-3.8,2.3
		c-12.6,0-25.3-0.1-37.9,0.1c-3.5,0.1-4-1.3-3.9-4.3C562.8,269,562.7,258.2,562.7,247.4z"/>
	<path class="st3" d="M491.9,247.1c0-10.8,0-21.6,0-32.4c0-1.4-0.9-3.4,2-3.6c3.1-0.1,2.5,1.8,2.5,3.6c0,8.3,0.2,16.6-0.1,24.9
		c-0.1,3.3,0.5,4.6,4.2,4.6c4.3,0,7.4-1.1,10.3-4.4c7.6-8.7,15.7-17.1,23.6-25.7c0.9-1,1.7-2.2,2.9-2.7c1.3-0.6,3.3-0.9,4.3,0.2
		c1.2,1.3-0.6,2.3-1.5,3.2c-8.9,9.9-17.7,19.8-26.8,29.5c-2.1,2.2-2.1,3.3,0.1,5.5c9.5,9.8,18.8,19.7,28.1,29.7c1,1.1,4,2.3,2,4.1
		c-1.5,1.4-3.9,0.6-5.7-1.3c-4.7-5.1-9.6-10.1-14.4-15.1c-5.1-5.3-10.3-10.4-15.1-15.9c-3.2-3.6-7-1.9-10.6-2
		c-1.8,0-1.1,2.1-1.1,3.3c-0.1,9.3,0,18.6,0,27.9c0,1.7,0.6,3.7-2.5,3.6c-2.9-0.1-2-2.2-2-3.6C491.9,269.3,491.9,258.2,491.9,247.1z
		"/>
	<path class="st2" d="M491.9,355c0-10.6,0.1-21.3-0.1-31.9c0-3,0.3-4.3,3.9-4.3c13,0.2,25.9,0.1,38.9,0.1c1.8,0,3.5-0.4,3.5,2.6
		c0,3.2-2,2.4-3.7,2.4c-11.3,0-22.6,0.1-33.9-0.1c-3.1-0.1-4.4,0.6-4.2,4c0.3,6.8,0.2,13.6,0,20.4c-0.1,2.9,0.9,3.6,3.7,3.6
		c9.1-0.2,18.3-0.2,27.4,0.1c1.8,0.1,5.4-2.4,5.6,2.2c0.2,4.8-3.5,2.5-5.3,2.5c-9.1,0.3-18.3,0.2-27.4,0c-3-0.1-4,0.7-3.9,3.8
		c0.2,9.3,0.1,18.6,0.1,27.9c0,1.6,0.4,3.3-2.3,3.3c-2.9,0-2.2-1.9-2.2-3.4C491.9,377.3,491.9,366.1,491.9,355z"/>
	<path class="st2" d="M402.2,247.3c0-10.8,0-21.6,0-32.4c0-1.6-1-3.8,2.3-3.7c3.2,0.1,2.2,2.4,2.2,3.9c0.1,19.8,0.2,39.5-0.1,59.3
		c0,4.1,1.2,4.9,5,4.8c9.5-0.3,18.9-0.1,28.4-0.1c1.6,0,3.7-0.8,3.7,2.4c0,3-1.6,2.6-3.5,2.6c-11.6,0-23.2-0.1-34.9,0.1
		c-2.8,0-3.2-1-3.2-3.4C402.2,269.5,402.2,258.4,402.2,247.3z"/>
	<path class="st2" d="M402.2,355.3c0-11,0-21.9,0-32.9c0-1.4-0.9-3.4,2-3.5c3.1-0.1,2.5,1.9,2.5,3.6c0,19.9,0.1,39.9-0.1,59.8
		c0,3.9,1.1,4.7,4.7,4.6c9.5-0.3,18.9-0.1,28.4-0.1c1.8,0,4.1-0.9,4,2.6c-0.1,3.2-2.1,2.4-3.7,2.4c-11.5,0-22.9-0.1-34.4,0.1
		c-2.9,0-3.5-1-3.5-3.7C402.2,377.2,402.2,366.2,402.2,355.3z"/>
	<path class="st4" d="M544.8,502.1c1.4-3.9,2.8-7.8,4.1-11.7c0.4-1.2,0.6-2.4,2.2-1.9c1.5,0.5,0.5,1.6,0.3,2.4
		c-0.4,1.4-0.8,2.8-1.2,4.3c0.7,0.1,1.1,0.3,1.6,0.3c6.7,0.3,6.7,0.3,6.9-6.3c0-1.3-1-3.6,1.1-3.7c2.4-0.1,1.2,2.3,1.2,3.5
		c0.3,6.5,0.2,6.3,7.2,6.5c2.1,0.1,6-1.4,6,1.2c0.1,2.6-3.8,0.8-5.8,1.4c-0.2,0-0.3,0-0.5,0c-2.2,0.4-5.7-1.2-6.4,0.9
		c-1,3-0.6,6.6-0.2,9.8c0.3,2.3,2.8,0.9,4.2,1.3c2.5,0.7,6.4-1.8,7.2,1.4c0.3,1.4-4.6,0.9-7,0.8c-3.8-0.3-4.8,1-4.7,4.7
		c0.2,9.1,0,9,9.1,9.1c2,0,5.8-0.9,5.6,0.9c-0.2,2.7-3.7,1.2-5.7,1.3c-9.2,0.2-18.5,0.1-28.8,0.1c3-3.4,5.9-2.2,8.4-2.2
		c9.1-0.2,8.8-0.1,9.1-9.3c0.1-3.9-1.3-4.7-4.8-4.6c-2.6,0.1-7.4,1.3-7.3-0.9c0.2-2.8,4.7-0.5,7.2-1.2c1.6-0.4,4.3,1.1,4.6-1.4
		c0.5-3.4,1.1-7.1-0.5-10.2c-0.9-1.7-8.9,0-10.1,1.9c-0.6,1-1.3,1.9-1.9,2.9C544.8,503.5,544.3,503.2,544.8,502.1z"/>
	<path class="st5" d="M448.3,503.8l0.3,0l0.2-0.2c3.7,2.4,8.4,1.9,12.3,3.9c0.5,2.7-1.6,1.9-2.8,1.9c-1.6,0.1-3.3,0.1-5,0
		c-1.4,0-2.1,0.4-2.1,2c0,1.5,0.6,2,2,2c2.3,0.1,4.6-0.6,7.1,0.6c-1.9,2.3-4.3,1.1-6.3,1.3c-1.5,0.2-2.9-0.1-2.8,2.3
		c0.1,2.2,1.5,1.7,2.8,1.8c2,0,4.1,0,6.1,0.7c-1.9,1.9-4.2,1.3-6.3,1.3c-1.8,0-2.6,0.5-2.6,2.5c0,1.9,0.6,2.6,2.5,2.6
		c2.1-0.1,4.3,0.1,6.4,0.2c0.6,0.6,0.6,1.2,0,1.7c-5.1,0-10.3,0-15.4,0c-2.1,0-4.7-0.8-4.1,3.8c-2.8-6.3,0-12.3-2.3-17.7
		c-1,0.2-1.5-0.2-1.2-1.3c0.9-1.8,1.9-3.5,2.6-5.3c0.5-1.3,2.3-2.6-1-3.8c-2.3-0.9-0.9-4.7-0.9-7.2c0-2.4,2.2-1.3,3.5-1.4
		c1.9-0.2,3.9,0,5.9,0c0.9,3.6,1.3,7.1-0.8,10.4C447.7,506.2,447.3,504.2,448.3,503.8z"/>
	<path class="st2" d="M466.5,248.1c0,10.8,0,21.6,0,32.4c0,1.4,0.9,3.4-2,3.6c-3.1,0.2-2.5-1.9-2.5-3.6c0-21.9,0-43.8,0-65.8
		c0-1.4-0.9-3.4,2-3.6c3.1-0.1,2.5,1.9,2.5,3.6C466.5,225.8,466.5,237,466.5,248.1z"/>
	<path class="st2" d="M462,355.3c0-11,0-21.9,0-32.9c0-1.7-0.6-3.7,2.5-3.6c2.9,0.1,2,2.1,2,3.6c0,21.9,0,43.8,0,65.8
		c0,1.7,0.6,3.7-2.5,3.6c-2.9-0.1-2-2.2-2-3.6C462,377.3,462,366.3,462,355.3z"/>
	<path class="st6" d="M603.3,489.6c7.1-0.4,14.2-0.8,21.2-1.2c0,0.5,0.1,1,0.1,1.6c-1.7,1.3-3.9,0.8-5.8,0.9
		c-2.9,0.2-4.1,1.2-4.1,4.5c-0.1,4,0.8,5.9,5.1,5.2c1.3-0.2,2.7-0.1,4,0c0.9,0,2.2-0.2,2.1,1.3c-0.1,1.1-1.1,1-1.9,1
		c-1.3,0-2.7,0.2-4,0c-4.2-0.7-5.3,1.1-5.2,5.2c0,3.8,1.5,4.7,4.7,4.1c3.9-0.7,4.8,1,4.5,4.6c-0.3,4.1-0.1,8.3-0.1,12.5
		c0,0.8,0.2,1.8-0.8,2.1c-1,0.3-1.5-0.3-1.5-1.3c0-1.8-1.4-1.5-2.5-1.5c-3.5,0-7,0-10.5,0c-0.7,0-1.4-0.1-1.9,0.2
		c-3,1.6-3,1.7-3-2.3c0-3.3,0.2-6.7-0.1-10c-0.3-3.5,0.8-4.9,4.3-4.3c4.2,0.8,4.7-1.3,4.9-5c0.2-4.2-1.7-4.5-5-4.4
		c-2,0.1-5.7,1-5.6-0.9c0.2-2.7,3.7-0.8,5.7-1.4c1.8-0.5,5.2,1.6,4.8-2.7c-0.3-2.9,1.7-7.1-4.1-6.6c-1.7,0.1-3.5-0.4-5.2-0.7
		C603.2,490.1,603.2,489.8,603.3,489.6z"/>
	<path class="st7" d="M387.5,451.2c1.6-1.2,3.5-0.6,5.3-0.6c78.8,0,157.5,0,236.3,0c1.8,0,3.7-0.6,5.3,0.6c-1.3,1.5-3.1,0.8-4.7,0.8
		c-79.2,0-158.4,0-237.6,0C390.6,452,388.9,452.8,387.5,451.2z"/>
	<path class="st8" d="M387.5,451.2c1.7,0.1,3.3,0.3,5,0.3c79,0,158,0,237,0c1.7,0,3.3-0.2,5-0.3c-0.9,2.1-2.9,1.3-4.4,1.3
		c-79.4,0-158.8,0-238.2,0C390.4,452.5,388.5,453.4,387.5,451.2z"/>
	<path class="st9" d="M395.3,501.4c6.9,0,13.9,0.1,20.8-0.1c3-0.1,4.3,0.4,4.3,3.9c-0.1,3.3-0.7,5-4.3,4.3c-0.5-0.1-1,0-1.5,0
		c-0.5,0.4-1.1,0.7-1.7,0.9c-5.4,1.2-10.7,0.1-16.1-0.6c-1.4-0.2-2.1-0.8-2-2.2C395,505.6,394.3,503.5,395.3,501.4z"/>
	<path class="st10" d="M395,531.2c-0.2-0.3-0.3-0.4-0.3-0.5c-1-9.7-1-9.7,8.6-9.7c4.3,0,8.6,0.2,12.9-0.1c3.3-0.2,5,0.6,4.4,4.3
		c-0.2,1.5,0,3-0.1,4.5c0,1.1-0.6,2.1-1.8,1.4c-6.5-3.7-13.6-0.7-20.3-1.7C396.7,529.1,396.9,531.3,395,531.2z"/>
	<path class="st11" d="M461.9,503.4c3.2-5.5,3.6-11.8,5.5-17.8c1.3,1.9,1,3.9,0.4,5.7c-1,3,0.4,3.3,2.8,3.2c3-0.1,5.9,0,9,0
		c0.1,3.5-0.8,6.5-1.7,9.5c-0.2,0.7-0.4,1.8-1.6,1.4c-1-0.3-1-1.1-0.8-2c0.5-2.1,0.9-4.2,1.4-6.2c-0.4-0.2-0.7-0.5-1-0.5
		c-2.8,0-6-0.8-8.4,0.2c-2.5,1.1-2.1,4.8-3.5,7.2c-0.6,0.9-0.6,2.3-1.9,2.8C459.7,505.8,460.5,504.6,461.9,503.4z"/>
	<path class="st12" d="M423.2,491.8c-3.7,0-7.5,0-11.2,0c-1.5,0-3.2-0.3-3.3,1.9c-0.1,2.6,1.7,2.4,3.4,2.4c3,0,6.1,0,9.1,0.4
		c-3.5,1.5-21.8,1.7-27.3,0.5c3.4-1.7,6.6-0.7,9.7-0.9c1.7-0.1,2.8-0.2,2.8-2.4c-0.1-2-1.3-1.9-2.7-1.9c-3.9,0-7.8,0-11.8,0
		c0-0.6-0.1-1.1-0.1-1.7c2.7,0,5.5,0,8.2,0c1.5,0,3-0.1,4.5,0c3.5,0.2,0.3-4.5,3.1-4.3c2.1,0.2-0.1,4.5,3.4,4.3
		c4-0.2,8.1-0.1,12.2-0.1C423.2,490.7,423.2,491.2,423.2,491.8z"/>
	<path class="st13" d="M460.1,528.4c0-0.6,0-1.2,0-1.7c2.3,1,2.6-0.9,3.4-2.2c3.7-6.4,4.6-13.6,5.4-20.8c0.1-1.2-0.6-3.3,1.1-3.2
		c2.3,0.1,1,2.3,1.1,3.5c0.2,2.4,0.1,4.9,0.1,7.4c1.4,2.3-1.4,2.3-1.9,3.5c-1,6.5-3.7,12.1-8.5,16.6
		C459.5,530.3,460.1,529.3,460.1,528.4z"/>
	<path class="st14" d="M395.3,501.4c-0.8,8.2-0.8,8.2,7,8.1c3.6,0,7.2,0,10.9,0c1.8,2.5-0.4,4-1.4,5.8c-2.4,1.8-5.1,1-7.8,0.8
		c-2.3-1.3-2-4.7-4.6-5.7C393.7,510.3,392.6,507.9,395.3,501.4z"/>
	<path class="st2" d="M403.4,515.4c2.6-0.5,5.5,0.9,8-0.9c1-0.5,1.5,0.3,2.1,0.9c3.3,0,6.6,0,9.9,0.1c0.2,0,0.5,0.4,1.6,1.2
		c-12,0-23.1,0-34.2,0c3.4-1.7,6.9-1.2,10.4-1.2C401.9,514.8,402.7,514.8,403.4,515.4z"/>
	<path class="st15" d="M450.2,503.4c0-8,0-8,9.9-7.9c0.2,0.4,0.4,0.8,0.5,1.4C462.1,506.3,456.1,506.2,450.2,503.4z"/>
	<path class="st16" d="M450.2,503.4c0.8,0,1.6,0,2.4,0c7.9,0,7.9,0,7.4-8c2.5,2.2-0.1,5.6,1.8,7.9c0.1,1.1-2,2.4,0.3,3.3
		c-0.4,0.3-0.7,0.5-1.1,0.8c-4.5,0-9.3,1-12.3-3.9C449.3,503.5,449.7,503.5,450.2,503.4z"/>
	<path class="st17" d="M469.3,514.8c-0.9-2,2.3-1.8,1.9-3.5c2.2,5.8,3.8,11.9,8.4,16.5c0.8,0.8,1.3,1.7,0.3,2.5
		c-1.1,0.9-1.7-0.2-2.4-0.9c-3.2-3.7-5.3-7.9-6.6-12.5C470.8,515.7,470.6,514.7,469.3,514.8z"/>
	<path class="st18" d="M443.4,495.3c-1-6.4-6.5-2.4-9.5-4.9c3-2.4,9.5,1.8,9.1-5.8c0.9,3.2,1.8,5.6,6.8,5.3
		C446.6,491.9,442.9,491,443.4,495.3z"/>
	<path class="st17" d="M592.6,530c1.3-5.2,2.6-10.5,4-15.7c0.2-0.8,0-2.3,1.6-1.5c1,0.4,1.3,1.2,0.9,2.4
		C597.7,520.3,596.5,525.7,592.6,530z"/>
	<path class="st19" d="M454.7,484.7c-0.1,7.5,5.8,3.5,8.3,5.3c0,2-1.4,1.4-2.4,1.5c-1,0.1-2.2,0.4-2.9,0c-2.8-1.5-1.9,5.1-3.5,2.1
		c-1.3-2.4-3.4-1.3-4.6-3.3C452.2,489.6,454.7,488.7,454.7,484.7z"/>
	<path class="st20" d="M448.3,503.8c-0.9,1.3,1.7,2.9,0.4,3.4c-1.7,0.7-3.9,0.5-5.8,0.1c-1.4-0.3-0.3-2.2,0.1-2.2
		c7.2-0.8,3.2-6.2,4-9.5C449.4,498,447.6,501.1,448.3,503.8z"/>
	<path class="st21" d="M508.2,505.6c2-0.3,2.8,0.4,2.8,2.3c0,1.7-0.3,2.7-2.4,2.7c-1.9,0-3.1-0.2-2.9-2.6
		C505.9,506.2,506.4,505.2,508.2,505.6z"/>
	<path class="st22" d="M591.2,500.3c4-0.4,5.3,2.2,7.2,3.7c0.8,0.7,0.3,1.4-0.3,2.1c-0.9,0.9-1.4,0.1-1.9-0.5
		C594.6,504,593.1,502.4,591.2,500.3z"/>
	<path class="st23" d="M592.9,487.5c4,0.8,5.9,2.7,6.9,5.4c0.1,0.3-1.1,1.4-1.2,1.3C596.2,492.8,594.7,490.5,592.9,487.5z"/>
	<path class="st24" d="M413.5,515.3c-0.7-0.3-1.4-0.6-2.1-0.9c0.2-1.8,2.4-2.9,1.7-5c0.5,0,1,0.1,1.5,0.1
		C417.5,512.1,413.3,513.3,413.5,515.3z"/>
	<path class="st25" d="M403.4,515.4c-0.7,0-1.5,0-2.2,0c0.6-2.1-1.7-3.1-1.8-4.9C402.9,510.3,403.6,512.5,403.4,515.4z"/>
	<path class="st26" d="M437.1,513.2c0.4,0.4,0.8,0.8,1.2,1.3c-0.7,1.5-1.6,4.1-3.3,2.8C433.7,516.2,436,514.4,437.1,513.2z"/>
	<path class="st27" d="M544.8,502.1c0.3,0.4,0.7,0.9,1,1.3c-0.3,1.1-1.2,2.8-2,2.1C542.1,504.3,544.1,503.2,544.8,502.1z"/>
	<path class="st0" d="M445.1,526.3c-2.4,0.2-4.3,0.4-4-2.8c0.3-4,3.2-1.7,4.8-2.1c1.7-0.4,3.5-0.4,3.4,2.5
		C449.2,528,446.3,525.7,445.1,526.3z"/>
	<path class="st0" d="M445.1,513.5c-1.4-0.7-4,1.3-4-2.1c0.1-3.7,2.9-1.7,4.4-1.9c1.4-0.2,4-1.2,3.7,2.1
		C449,514.8,446.4,512.7,445.1,513.5z"/>
	<path class="st0" d="M445.1,515.3c1.3,0.8,3.9-1.3,4.1,1.9c0.2,3.7-2.7,2-4.2,2.1c-1.4,0-3.9,1.4-3.9-1.9
		C441.2,514,443.7,516,445.1,515.3z"/>
	<path class="st28" d="M443,502.5c-1.9-0.1-3.7,0.5-3.7-2.3c0-2.1,0.6-3,2.8-2.8c1.5,0.2,3.4-0.6,3.3,2.2
		C445.2,501.7,444.9,502.9,443,502.5z"/>
	<path class="st29" d="M613.9,514.4c0.2,0,0.3,0,0.5,0c6.9,0,9.2,3.3,7.2,10.2c-0.3,0.9-0.6,1.5-1.5,1.6c-4.1,0-8.3,0-12.4,0
		c-1.2,0-1.7-0.7-1.7-1.9c0-0.5,0-1,0-1.5C605.5,514.4,605.5,514.4,613.9,514.4z"/>
	<path class="st30" d="M408,503.6c2.6,0,5.3,0,7.9,0c1.5,0,2,0.7,2,2.1c0.1,1.6-0.9,1.9-2.2,1.9c-5.4,0-10.9,0-16.3,0
		c-1.3,0-2.2-0.2-2.2-1.8c0-1.7,0.6-2.3,2.3-2.3C402.4,503.6,405.2,503.6,408,503.6z"/>
	<path class="st31" d="M407.6,527.4c-2.8,0-5.6,0-8.5,0c-1.4,0-2.6,0-2.5-2c0.1-1.9,0.7-2.7,2.7-2.7c5.6,0.1,11.3,0.1,16.9,0
		c1.9,0,2.1,1,2.2,2.5c0.1,1.8-0.6,2.3-2.3,2.2C413.2,527.3,410.4,527.4,407.6,527.4z"/>
	<path class="st32" d="M455.2,497.4c1.1,0.3,3-0.9,3.2,1.7c0.1,2.1-0.9,2.6-2.6,2.3c-1.4-0.2-3.4,1-3.5-1.9
		C452.1,497.1,453.7,497.5,455.2,497.4z"/>
</g>
</svg>
