<?xml version="1.0" encoding="utf-8"?>
<!-- Generator: Adobe Illustrator 24.0.2, SVG Export Plug-In . SVG Version: 6.00 Build 0)  -->
<svg version="1.1" id="圖層_1" xmlns="http://www.w3.org/2000/svg" xmlns:xlink="http://www.w3.org/1999/xlink" x="0px" y="0px"
	 viewBox="0 0 1440 900" style="enable-background:new 0 0 1440 900;" xml:space="preserve">
<style type="text/css">
	.st0{fill:none;stroke:#FFFFFF;stroke-width:2;stroke-miterlimit:10;}
	.st1{display:none;fill:#FFFFFF;}
	.st2{fill:#FFFFFF;stroke:#FFFFFF;stroke-miterlimit:10;}
	.st3{fill:#FFFFFF;}
	.st4{font-family:'MicrosoftJhengHeiLight';}
	.st5{font-size:49.4144px;}
	.st6{letter-spacing:3.2;}
	.st7{fill:none;stroke:#FFFFFF;stroke-width:0.5;stroke-miterlimit:10;}
	.st8{fill:#FFFFFF;stroke:#FFFFFF;stroke-width:0.5;stroke-miterlimit:10;}
	.st9{font-size:24px;}
	.st10{letter-spacing:14;}
</style>
<g>
	<path class="st0" d="M420.8,391.3c0-68,0-136-0.1-203.9c0-4,0.7-5.2,5-5.2c94.6,0.1,189.1,0.1,283.7,0c3.8,0,4.9,0.8,4.9,4.8
		c-0.1,136.5-0.1,272.9,0,409.4c0,4.4-1.4,4.9-5.3,4.9c-94.4-0.1-188.8-0.1-283.2,0c-4.1,0-5.1-0.9-5.1-5.1
		C420.8,528,420.8,459.7,420.8,391.3z"/>
	<path class="st1" d="M416.7,391.8c0-67.5,0.1-134.9-0.1-202.4c0-4.4,1.1-5.4,5.4-5.3c93.1,0.1,186.1,0.1,279.2,0
		c4.7,0,5.6,1.4,5.6,5.8c-0.1,134.6-0.1,269.2,0,403.8c0,5-1.4,5.9-6,5.8c-92.7-0.1-185.4-0.1-278.2,0c-4.6,0-6-0.8-6-5.8
		C416.7,526.4,416.7,459.1,416.7,391.8z"/>
	<path class="st2" d="M627.1,379.1c0-10.8,0.1-21.6-0.1-32.4c-0.1-3,0.7-3.9,3.8-3.9c12.6,0.2,25.3,0.1,37.9,0.1
		c1.9,0,4-0.7,3.9,2.7c-0.1,3.2-2.2,2.2-3.8,2.2c-11.1,0.1-22.3,0.2-33.4,0c-3.1-0.1-4,0.9-3.8,3.9c0.2,6.3,0.3,12.6,0,18.9
		c-0.2,3.7,1.3,4.3,4.5,4.2c9.3-0.2,18.6-0.1,27.9-0.1c1.7,0,3.6-0.7,3.6,2.5c0,3.1-1.8,2.5-3.6,2.5c-9.5,0-18.9,0.2-28.4-0.1
		c-3.4-0.1-4.2,1-4.1,4.2c0.2,7.5,0.3,15,0,22.4c-0.2,4.1,1.4,4.5,4.8,4.5c10.8-0.2,21.6-0.1,32.4-0.1c1.9,0,4-0.7,3.9,2.7
		c-0.1,3.2-2.3,2.2-3.8,2.2c-12.6,0.1-25.3-0.1-37.9,0.1c-3,0-3.9-0.7-3.9-3.8C627.3,401,627.1,390.1,627.1,379.1z"/>
	<path class="st2" d="M626.1,271.4c0-10.8,0.1-21.6-0.1-32.4c0-2.9,0.4-4,3.7-4c12.6,0.2,25.3,0.1,37.9,0.1c1.8,0,4.1-0.9,4,2.6
		c-0.1,3.6-2.6,2.3-4.2,2.3c-11,0.1-21.9,0.2-32.9,0c-3,0-4,0.7-3.9,3.8c0.3,6.5,0.3,13,0,19.4c-0.1,3.2,1,3.9,4,3.8
		c9.3-0.2,18.6-0.1,27.9,0c1.6,0,4.1-1.3,4.2,2.3c0.1,3.5-2.2,2.6-4,2.6c-9.5,0.1-18.9,0.1-28.4,0c-2.8,0-3.7,0.7-3.6,3.6
		c0.2,8,0.2,16,0,23.9c-0.1,3,1,3.6,3.7,3.5c11.1-0.1,22.3-0.1,33.4,0c1.8,0,4-0.8,3.9,2.6c-0.1,3.2-2.2,2.3-3.8,2.3
		c-12.6,0-25.3-0.1-37.9,0.1c-3.5,0.1-4-1.3-3.9-4.3C626.2,293,626.1,282.2,626.1,271.4z"/>
	<path class="st2" d="M555.3,271.1c0-10.8,0-21.6,0-32.4c0-1.4-0.9-3.4,2-3.6c3.1-0.1,2.5,1.8,2.5,3.6c0,8.3,0.2,16.6-0.1,24.9
		c-0.1,3.3,0.5,4.6,4.2,4.6c4.3,0,7.4-1.1,10.3-4.4c7.6-8.7,15.7-17.1,23.6-25.7c0.9-1,1.7-2.2,2.9-2.7c1.3-0.6,3.3-0.9,4.3,0.2
		c1.2,1.3-0.6,2.3-1.5,3.2c-8.9,9.9-17.7,19.8-26.8,29.5c-2.1,2.2-2.1,3.3,0.1,5.5c9.5,9.8,18.8,19.7,28.1,29.7c1,1.1,4,2.3,2,4.1
		c-1.5,1.4-3.9,0.6-5.7-1.3c-4.7-5.1-9.6-10.1-14.4-15.1c-5.1-5.3-10.3-10.4-15.1-15.9c-3.2-3.6-7-1.9-10.6-2
		c-1.8,0-1.1,2.1-1.1,3.3c-0.1,9.3,0,18.6,0,27.9c0,1.7,0.6,3.7-2.5,3.6c-2.9-0.1-2-2.2-2-3.6C555.3,293.3,555.3,282.2,555.3,271.1z
		"/>
	<path class="st2" d="M555.3,379c0-10.6,0.1-21.3-0.1-31.9c0-3,0.3-4.3,3.9-4.3c13,0.2,25.9,0.1,38.9,0.1c1.8,0,3.5-0.4,3.5,2.6
		c0,3.2-2,2.4-3.7,2.4c-11.3,0-22.6,0.1-33.9-0.1c-3.1-0.1-4.4,0.6-4.2,4c0.3,6.8,0.2,13.6,0,20.4c-0.1,2.9,0.9,3.6,3.7,3.6
		c9.1-0.2,18.3-0.2,27.4,0.1c1.8,0.1,5.4-2.4,5.6,2.2c0.2,4.8-3.5,2.5-5.3,2.5c-9.1,0.3-18.3,0.2-27.4,0c-3-0.1-4,0.7-3.9,3.8
		c0.2,9.3,0.1,18.6,0.1,27.9c0,1.6,0.4,3.3-2.3,3.3c-2.9,0-2.2-1.9-2.2-3.4C555.3,401.3,555.3,390.1,555.3,379z"/>
	<path class="st2" d="M465.6,271.3c0-10.8,0-21.6,0-32.4c0-1.6-1-3.8,2.3-3.7c3.2,0.1,2.2,2.4,2.2,3.9c0.1,19.8,0.2,39.5-0.1,59.3
		c0,4.1,1.2,4.9,5,4.8c9.5-0.3,18.9-0.1,28.4-0.1c1.6,0,3.7-0.8,3.7,2.4c0,3-1.6,2.6-3.5,2.6c-11.6,0-23.2-0.1-34.9,0.1
		c-2.8,0-3.2-1-3.2-3.4C465.6,293.5,465.6,282.4,465.6,271.3z"/>
	<path class="st2" d="M465.6,379.3c0-11,0-21.9,0-32.9c0-1.4-0.9-3.4,2-3.5c3.1-0.1,2.5,1.9,2.5,3.6c0,19.9,0.1,39.9-0.1,59.8
		c0,3.9,1.1,4.7,4.7,4.6c9.5-0.3,18.9-0.1,28.4-0.1c1.8,0,4.1-0.9,4,2.6c-0.1,3.2-2.1,2.4-3.7,2.4c-11.5,0-22.9-0.1-34.4,0.1
		c-2.9,0-3.5-1-3.5-3.7C465.6,401.2,465.6,390.2,465.6,379.3z"/>
	<path class="st2" d="M529.9,272.1c0,10.8,0,21.6,0,32.4c0,1.4,0.9,3.4-2,3.6c-3.1,0.2-2.5-1.9-2.5-3.6c0-21.9,0-43.8,0-65.8
		c0-1.4-0.9-3.4,2-3.6c3.1-0.1,2.5,1.9,2.5,3.6C529.9,249.8,529.9,261,529.9,272.1z"/>
	<path class="st2" d="M525.4,379.3c0-11,0-21.9,0-32.9c0-1.7-0.6-3.7,2.5-3.6c2.9,0.1,2,2.1,2,3.6c0,21.9,0,43.8,0,65.8
		c0,1.7,0.6,3.7-2.5,3.6c-2.9-0.1-2-2.2-2-3.6C525.4,401.3,525.4,390.3,525.4,379.3z"/>
	<path class="st2" d="M450.9,475.2c1.6-1.2,3.5-0.6,5.3-0.6c78.8,0,157.5,0,236.3,0c1.8,0,3.7-0.6,5.3,0.6c-1.3,1.5-3.1,0.8-4.7,0.8
		c-79.2,0-158.4,0-237.6,0C454,476,452.3,476.8,450.9,475.2z"/>
	<path class="st2" d="M450.9,475.2c1.7,0.1,3.3,0.3,5,0.3c79,0,158,0,237,0c1.7,0,3.3-0.2,5-0.3c-0.9,2.1-2.9,1.3-4.4,1.3
		c-79.4,0-158.8,0-238.2,0C453.8,476.5,451.9,477.4,450.9,475.2z"/>
</g>
<text transform="matrix(0.9285 0 0 1 452.9786 557.9139)" class="st3 st4 st5 st6">喜歡</text>
<text transform="matrix(0.9285 0 0 1 452.9786 557.9139)" class="st7 st4 st5 st6">喜歡</text>
<text transform="matrix(0.9285 0 0 1 567.9786 551.9139)" class="st3 st4 st5 st6">‧</text>
<text transform="matrix(0.9285 0 0 1 567.9786 551.9139)" class="st7 st4 st5 st6">‧</text>
<text transform="matrix(0.9285 0 0 1 593.9786 557.9139)" class="st3 st4 st5 st6">生活</text>
<text transform="matrix(0.9285 0 0 1 593.9786 557.9139)" class="st7 st4 st5 st6">生活</text>
<text transform="matrix(0.9285 0 0 1 524.9786 467.9139)" class="st8 st4 st9 st10">乾燥花</text>
</svg>
